<svg width="78" height="22" viewBox="0 0 78 22" fill="none" xmlns="http://www.w3.org/2000/svg">
<path d="M0.241477 11.6619V9.20739L11.9006 3.82102V6.84659L3.61648 10.4006L3.71023 10.2386V10.6307L3.61648 10.4688L11.9006 14.0227V17.0483L0.241477 11.6619ZM25.3558 6.34375C25.2763 5.59943 24.9411 5.01989 24.3501 4.60511C23.7649 4.19034 23.0036 3.98295 22.0661 3.98295C21.407 3.98295 20.8416 4.08239 20.37 4.28125C19.8984 4.48011 19.5376 4.75 19.2876 5.09091C19.0376 5.43182 18.9098 5.82102 18.9041 6.25852C18.9041 6.62216 18.9865 6.9375 19.1513 7.20455C19.3217 7.47159 19.5518 7.69886 19.8416 7.88636C20.1314 8.06818 20.4524 8.22159 20.8047 8.34659C21.157 8.47159 21.5121 8.5767 21.87 8.66193L23.5064 9.07102C24.1655 9.22443 24.799 9.43182 25.407 9.69318C26.0206 9.95455 26.5689 10.2841 27.0518 10.6818C27.5405 11.0795 27.9268 11.5597 28.2109 12.1222C28.495 12.6847 28.6371 13.3437 28.6371 14.0994C28.6371 15.1222 28.3757 16.0227 27.853 16.8011C27.3303 17.5739 26.5746 18.179 25.5859 18.6165C24.603 19.0483 23.4126 19.2642 22.0149 19.2642C20.657 19.2642 19.478 19.054 18.478 18.6335C17.4837 18.2131 16.7053 17.5994 16.1428 16.7926C15.5859 15.9858 15.2848 15.0028 15.2393 13.8438H18.3501C18.3956 14.4517 18.5831 14.9574 18.9126 15.3608C19.2422 15.7642 19.6712 16.0653 20.1996 16.2642C20.7337 16.4631 21.3303 16.5625 21.9893 16.5625C22.6768 16.5625 23.2791 16.4602 23.7962 16.2557C24.3189 16.0455 24.728 15.7557 25.0234 15.3864C25.3189 15.0114 25.4695 14.5739 25.4751 14.0739C25.4695 13.6193 25.3359 13.2443 25.0746 12.9489C24.8132 12.6477 24.4467 12.3977 23.9751 12.1989C23.5092 11.9943 22.9638 11.8125 22.3388 11.6534L20.353 11.142C18.9155 10.7727 17.7791 10.2131 16.9439 9.46307C16.1143 8.70739 15.6996 7.70455 15.6996 6.45454C15.6996 5.42614 15.978 4.52557 16.5348 3.75284C17.0973 2.98011 17.8615 2.38068 18.8274 1.95454C19.7933 1.52273 20.8871 1.30682 22.1087 1.30682C23.3473 1.30682 24.4325 1.52273 25.3643 1.95454C26.3018 2.38068 27.0376 2.97443 27.5717 3.73579C28.1058 4.49148 28.3814 5.3608 28.3984 6.34375H25.3558ZM33.2202 19.1875C32.7031 19.1875 32.2599 19.0057 31.8906 18.642C31.5213 18.2784 31.3395 17.8352 31.3452 17.3125C31.3395 16.8011 31.5213 16.3636 31.8906 16C32.2599 15.6364 32.7031 15.4545 33.2202 15.4545C33.7202 15.4545 34.1548 15.6364 34.5241 16C34.8991 16.3636 35.0895 16.8011 35.0952 17.3125C35.0895 17.6591 34.9986 17.9744 34.8224 18.2585C34.652 18.5426 34.4247 18.7699 34.1406 18.9403C33.8622 19.1051 33.5554 19.1875 33.2202 19.1875ZM40.6584 19H37.2834L43.4283 1.54545H47.3317L53.4851 19H50.1101L45.4482 5.125H45.3118L40.6584 19ZM40.7692 12.1562H49.9737V14.696H40.7692V12.1562ZM62.7727 0.727272L57.1477 21.625H54.446L60.071 0.727272H62.7727ZM77.0568 13.2983L65.3977 18.6847V15.6591L73.6818 12.1051L73.5881 12.267V11.875L73.6818 12.0369L65.3977 8.48295V5.45739L77.0568 10.8438V13.2983Z" fill="#BE6ADF"/>
</svg>

